<?xml version="1.0" encoding="UTF-8"?>
<svg id="Layer_1" data-name="Layer 1" xmlns="http://www.w3.org/2000/svg" viewBox="0 0 243.48 273.1">
  <defs>
    <style>
      .cls-1 {
        font-family: MyriadPro-Bold, 'Myriad Pro';
        font-size: 14.44px;
        font-weight: 700;
        isolation: isolate;
      }

      .cls-1, .cls-2 {
        fill: #fff;
      }

      .cls-3 {
        letter-spacing: .02em;
      }

      .cls-4 {
        fill: beige;
      }

      .cls-4, .cls-5, .cls-6, .cls-2, .cls-7 {
        stroke-width: 0px;
      }

      .cls-5 {
        fill: #ffb6c1;
      }

      .cls-6 {
        fill: #000;
      }

      .cls-8 {
        fill: none;
        stroke: #ffb6c1;
        stroke-miterlimit: 10;
      }

      .cls-7 {
        fill: #90ee90;
      }
    </style>
  </defs>
  <ellipse class="cls-5" cx="121.74" cy="153.2" rx="121.74" ry="119.14"/>
  <path class="cls-4" d="M156.07,273.1h-66.24c-24.94,0-45.35-20.41-45.35-45.35v-50.28c0-24.94,20.41-45.35,45.35-45.35h66.24c24.94,0,45.35,20.41,45.35,45.35v50.28c0,24.94-20.41,45.35-45.35,45.35Z"/>
  <polygon class="cls-7" points="121.74 0 158.86 40.37 84.62 40.37 121.74 0"/>
  <text class="cls-1" transform="translate(109.43 125.72) scale(1.15 1)"><tspan class="cls-3" x="0" y="0">T</tspan><tspan x="8.23" y="0">TK</tspan></text>
  <ellipse class="cls-2" cx="85.67" cy="202.61" rx="18.14" ry="13.68"/>
  <ellipse class="cls-2" cx="159.9" cy="203.66" rx="18.14" ry="13.68"/>
  <ellipse class="cls-6" cx="91.23" cy="202.61" rx="12.57" ry="12.63"/>
  <ellipse class="cls-6" cx="165.47" cy="203.66" rx="12.57" ry="12.63"/>
  <ellipse class="cls-2" cx="91.23" cy="202.61" rx="3.67" ry="3.69"/>
  <ellipse class="cls-2" cx="165.47" cy="203.66" rx="3.67" ry="3.69"/>
  <path class="cls-8" d="M102.77,236.36c0,2.09,9.03,3.78,20.18,3.78"/>
  <path class="cls-8" d="M142.8,236.36c0,2.09-8.88,3.78-19.86,3.78"/>
</svg>